<svg xmlns="http://www.w3.org/2000/svg" viewBox="0 0 1024 1024">
<defs>
<linearGradient id="tile" x1="0.37" y1="0" x2="0.63" y2="1"><stop offset="0" stop-color="#f7f9ff"/><stop offset="0.55" stop-color="#dfe6ff"/><stop offset="1" stop-color="#e9defe"/></linearGradient>
<linearGradient id="sheen" x1="0" y1="0" x2="0" y2="1"><stop offset="0" stop-color="#ffffff" stop-opacity="0.45"/><stop offset="0.42" stop-color="#ffffff" stop-opacity="0"/></linearGradient>
<linearGradient id="hangar-rail" gradientUnits="userSpaceOnUse" x1="-13.362" y1="0" x2="34.096" y2="0"><stop offset="0" stop-color="#1c1b2e"/><stop offset="0.25" stop-color="#1c1b2e"/><stop offset="1" stop-color="#e2e7ff"/></linearGradient>
</defs>
<rect x="100" y="100" width="824" height="824" rx="185" fill="url(#tile)"/>
<rect x="100" y="100" width="824" height="824" rx="185" fill="url(#sheen)"/>
<rect x="101.5" y="101.5" width="821" height="821" rx="183.5" fill="none" stroke="#ffffff" stroke-opacity="0.6" stroke-width="3"/>
<g transform="translate(100 100) scale(8.24)"><g transform="translate(46.256 25.106) scale(0.854)"><path d="M-13.362 3.178L34.096 -11.66" stroke="url(#hangar-rail)" stroke-width="2.6" stroke-linecap="round"/><g data-hanger="3" transform="translate(20.734 -6.483) scale(0.614)"><path d="M0 10v-4a4.2 4.2 0 1 0-4.2-4.2" fill="none" stroke="#c6cae2" stroke-width="2.8" stroke-linecap="round"/><rect x="-30" y="29" width="60" height="40" rx="5" fill="#c6cae2"/><path d="M0 10L-31 31H31Z" fill="none" stroke="#cdd5fc" stroke-width="4" stroke-linejoin="round"/><circle cx="-23" cy="37" r="2" fill="#e6d6e7"/><circle cx="-16.5" cy="37" r="2" fill="#e6e2e6"/><circle cx="-10" cy="37" r="2" fill="#cbe0ef"/><path d="M-23 46l7 5.5-7 5.5" fill="none" stroke="#e5e7f0" stroke-width="3.4" stroke-linecap="round" stroke-linejoin="round"/><rect x="-12" y="55" width="13" height="4" rx="2" fill="#f4caa4"/></g><g data-hanger="2" transform="translate(14.911 -4.662) scale(0.722)"><path d="M0 10v-4a4.2 4.2 0 1 0-4.2-4.2" fill="none" stroke="#8e90a6" stroke-width="2.8" stroke-linecap="round"/><rect x="-30" y="29" width="60" height="40" rx="5" fill="#8e90a6"/><path d="M0 10L-31 31H31Z" fill="none" stroke="#a1aff5" stroke-width="4" stroke-linejoin="round"/><circle cx="-23" cy="37" r="2" fill="#eeb2b6"/><circle cx="-16.5" cy="37" r="2" fill="#eed8b3"/><circle cx="-10" cy="37" r="2" fill="#9cd2cd"/><path d="M-23 46l7 5.5-7 5.5" fill="none" stroke="#e6e6eb" stroke-width="3.4" stroke-linecap="round" stroke-linejoin="round"/><rect x="-12" y="55" width="13" height="4" rx="2" fill="#c1c0d3"/></g><g data-hanger="1" transform="translate(8.06 -2.52) scale(0.85)"><path d="M0 10v-4a4.2 4.2 0 1 0-4.2-4.2" fill="none" stroke="#55556a" stroke-width="2.8" stroke-linecap="round"/><rect x="-30" y="29" width="60" height="40" rx="5" fill="#55556a"/><path d="M0 10L-31 31H31Z" fill="none" stroke="#7689ef" stroke-width="4" stroke-linejoin="round"/><circle cx="-23" cy="37" r="2" fill="#f78e86"/><circle cx="-16.5" cy="37" r="2" fill="#f7cd80"/><circle cx="-10" cy="37" r="2" fill="#6ec3ac"/><path d="M-23 46l7 5.5-7 5.5" fill="none" stroke="#e7e6e6" stroke-width="3.4" stroke-linecap="round" stroke-linejoin="round"/><rect x="-12" y="55" width="13" height="4" rx="2" fill="#e56656"/></g><g data-hanger="0" transform="translate(0 0) scale(1)"><path d="M0 10v-4a4.2 4.2 0 1 0-4.2-4.2" fill="none" stroke="#1c1b2e" stroke-width="2.8" stroke-linecap="round"/><rect x="-30" y="29" width="60" height="40" rx="5" fill="#1c1b2e"/><path d="M0 10L-31 31H31Z" fill="none" stroke="#4a63e8" stroke-width="4" stroke-linejoin="round"/><circle cx="-23" cy="37" r="2" fill="#ff6a55"/><circle cx="-16.5" cy="37" r="2" fill="#ffc34d"/><circle cx="-10" cy="37" r="2" fill="#3fb58a"/><path d="M-23 46l7 5.5-7 5.5" fill="none" stroke="#e8e6e1" stroke-width="3.4" stroke-linecap="round" stroke-linejoin="round"/><rect x="-12" y="55" width="13" height="4" rx="2" fill="#ffb86b"/></g></g></g>
</svg>
